<?xml version="1.0" encoding="UTF-8"?>
<svg width="96" height="96" version="1.1" viewBox="0 0 96 96" xmlns="http://www.w3.org/2000/svg" xmlns:cc="http://creativecommons.org/ns#" xmlns:dc="http://purl.org/dc/elements/1.1/" xmlns:rdf="http://www.w3.org/1999/02/22-rdf-syntax-ns#">
 <metadata>
  <rdf:RDF>
   <cc:Work rdf:about="">
    <dc:format>image/svg+xml</dc:format>
    <dc:type rdf:resource="http://purl.org/dc/dcmitype/StillImage"/>
    <dc:title/>
    <dc:creator>
     <cc:Agent>
      <dc:title/>
     </cc:Agent>
    </dc:creator>
    <dc:publisher>
     <cc:Agent>
      <dc:title/>
     </cc:Agent>
    </dc:publisher>
    <cc:license rdf:resource=""/>
   </cc:Work>
  </rdf:RDF>
 </metadata>
 <g display="none" fill="#808c99">
  <path d="m20 10.59a14 14 0 0 0-10 13.41 14 14 0 0 0 14 14 14 14 0 0 0 14-14 14 14 0 0 0-10-13.404v4.2441a10 10 0 0 1 6 9.1602 10 10 0 0 1-10 10 10 10 0 0 1-10-10 10 10 0 0 1 6-9.1523z" display="inline"/>
  <rect x="22" y="8" width="4" height="16" rx=".5" ry=".5" display="inline"/>
 </g>
 <g transform="translate(0 -1004.4)" fill="#2e3440">
  <rect x="44" y="1028.4" width="8" height="24"/>
  <path d="m56 1031.9v9.0078a14 14 0 0 1 6 11.484 14 14 0 0 1-14 14 14 14 0 0 1-14-14 14 14 0 0 1 6-11.469v-9a22 22 0 0 0-14 20.469 22 22 0 0 0 22 22 22 22 0 0 0 22-22 22 22 0 0 0-14-20.492z"/>
 </g>
</svg>
