<?xml version="1.0" encoding="UTF-8"?>
<svg width="96" height="96" version="1.1" viewBox="0 0 96 96" xmlns="http://www.w3.org/2000/svg" xmlns:cc="http://creativecommons.org/ns#" xmlns:dc="http://purl.org/dc/elements/1.1/" xmlns:rdf="http://www.w3.org/1999/02/22-rdf-syntax-ns#">
 <metadata>
  <rdf:RDF>
   <cc:Work rdf:about="">
    <dc:format>image/svg+xml</dc:format>
    <dc:type rdf:resource="http://purl.org/dc/dcmitype/StillImage"/>
    <dc:title/>
    <dc:creator>
     <cc:Agent>
      <dc:title/>
     </cc:Agent>
    </dc:creator>
    <dc:publisher>
     <cc:Agent>
      <dc:title/>
     </cc:Agent>
    </dc:publisher>
    <cc:license rdf:resource=""/>
   </cc:Work>
  </rdf:RDF>
 </metadata>
 <g transform="translate(0 -1004.4)">
  <path d="m43.835 1030.4-0.96987 5.506a17.286 17.286 0 0 0-2.9035 1.1942l-4.5731-3.2012-5.8898 5.8896 3.2104 4.5854a17.286 17.286 0 0 0-1.2062 2.8912l-5.5031 0.9698v8.33l5.5061 0.9698a17.286 17.286 0 0 0 1.1939 2.9034l-3.2012 4.5732 5.8898 5.8896 4.5854-3.2102a17.286 17.286 0 0 0 2.8912 1.206l0.96987 5.5032h8.3298l0.96987-5.506a17.286 17.286 0 0 0 2.9035-1.194l4.5731 3.201 5.8898-5.8896-3.2104-4.5854a17.286 17.286 0 0 0 1.2062-2.8912l5.5031-0.9698v-8.33l-5.5061-0.9698a17.286 17.286 0 0 0-1.1939-2.9034l3.2012-4.5732-5.8898-5.8896-4.5854 3.2102a17.286 17.286 0 0 0-2.8912-1.206l-0.96987-5.5032zm4.257 15.714a6.2857 6.2857 0 0 1 4.3521 1.8416 6.2857 6.2857 0 0 1 0 8.8884 6.2857 6.2857 0 0 1-8.8884 0 6.2857 6.2857 0 0 1 0-8.8884 6.2857 6.2857 0 0 1 4.5363-1.8416z" fill="#d8dee9"/>
 </g>
 <g display="none">
  <path d="m18 29v12l-8-6z" color="#000000" color-rendering="auto" display="inline" fill="#8b98a5" image-rendering="auto" shape-rendering="auto" solid-color="#000000" style="isolation:auto;mix-blend-mode:normal"/>
 </g>
</svg>
