<?xml version="1.0" encoding="UTF-8"?>
<svg width="256" height="256" version="1.1" viewBox="0 0 256 67.733" xmlns="http://www.w3.org/2000/svg">
 <g transform="matrix(1.9385 0 0 1.9385 -107.04 -450.66)" fill="#2e3440">
  <path class="st1" d="m121.2 196.3c-4.8 11.7-7.7 19.4-13 30.7 3.3 3.5 7.3 7.5 13.8 12-7-2.9-11.8-5.8-15.3-8.8-6.8 14.2-17.5 34.4-39.1 73.3 17-9.8 30.2-15.9 42.5-18.2-0.5-2.3-0.8-4.7-0.8-7.3v-0.5c0.3-10.9 5.9-19.3 12.7-18.7 6.7 0.6 11.9 9.9 11.7 20.8 0 2.1-0.3 4-0.7 5.9 12.2 2.4 25.2 8.4 42 18.1-3.3-6.1-6.3-11.6-9.1-16.8-4.4-3.4-9.1-7.9-18.5-12.8 6.5 1.7 11.2 3.6 14.8 5.8-28.9-53.3-31.2-60.4-41-83.5z" fill="#2e3440"/>
 </g>
</svg>
