<?xml version="1.0" encoding="UTF-8" standalone="no"?>
<svg
   xmlns:dc="http://purl.org/dc/elements/1.1/"
   xmlns:cc="http://creativecommons.org/ns#"
   xmlns:rdf="http://www.w3.org/1999/02/22-rdf-syntax-ns#"
   xmlns:svg="http://www.w3.org/2000/svg"
   xmlns="http://www.w3.org/2000/svg"
   xmlns:sodipodi="http://sodipodi.sourceforge.net/DTD/sodipodi-0.dtd"
   xmlns:inkscape="http://www.inkscape.org/namespaces/inkscape"
   width="96"
   height="96"
   version="1.1"
   viewBox="0 0 96 96"
   id="svg98"
   sodipodi:docname="selection_small.svg"
   inkscape:version="1.0.1 (3bc2e813f5, 2020-09-07)">
  <defs
     id="defs102" />
  <sodipodi:namedview
     pagecolor="#ffffff"
     bordercolor="#666666"
     borderopacity="1"
     objecttolerance="10"
     gridtolerance="10"
     guidetolerance="10"
     inkscape:pageopacity="0"
     inkscape:pageshadow="2"
     inkscape:window-width="2976"
     inkscape:window-height="1306"
     id="namedview100"
     showgrid="false"
     inkscape:zoom="4.0833333"
     inkscape:cx="-83.327326"
     inkscape:cy="38.475642"
     inkscape:window-x="232"
     inkscape:window-y="102"
     inkscape:window-maximized="0"
     inkscape:current-layer="svg98" />
  <metadata
     id="metadata86">
    <rdf:RDF>
      <cc:Work
         rdf:about="">
        <dc:format>image/svg+xml</dc:format>
        <dc:type
           rdf:resource="http://purl.org/dc/dcmitype/StillImage" />
        <dc:title />
        <dc:creator>
          <cc:Agent>
            <dc:title />
          </cc:Agent>
        </dc:creator>
        <dc:publisher>
          <cc:Agent>
            <dc:title />
          </cc:Agent>
        </dc:publisher>
        <cc:license
           rdf:resource="" />
      </cc:Work>
    </rdf:RDF>
  </metadata>
  <g
     display="none"
     fill="#808c99"
     id="g92">
    <path
       d="m20 10.59a14 14 0 0 0-10 13.41 14 14 0 0 0 14 14 14 14 0 0 0 14-14 14 14 0 0 0-10-13.404v4.2441a10 10 0 0 1 6 9.1602 10 10 0 0 1-10 10 10 10 0 0 1-10-10 10 10 0 0 1 6-9.1523z"
       display="inline"
       id="path88" />
    <rect
       x="22"
       y="8"
       width="4"
       height="16"
       rx=".5"
       ry=".5"
       display="inline"
       id="rect90" />
  </g>
  <g
     transform="matrix(0.97777995,0,0,0.97777995,1.0665624,-981.01552)"
     id="g96"
     style="stroke:#b48ead;stroke-opacity:1;stroke-width:6.13635;stroke-miterlimit:4;stroke-dasharray:none">
    <path
       d="m 10.347,1007.4 c -3.6735,0 -7.3469,3.6735 -7.3469,7.347 v 75.306 c 0,3.6734 3.6735,7.3469 7.3469,7.3469 h 75.306 c 3.6735,0 7.3469,-3.6735 7.3469,-7.3469 v -75.306 c 0,-3.6735 -3.6735,-7.347 -7.3469,-7.347 z"
       fill="#2e3440"
       fill-opacity="0.31372"
       stroke="#b48ead"
       stroke-width="2"
       id="path94"
       style="stroke:#b48ead;stroke-opacity:1;stroke-width:6.13635;stroke-miterlimit:4;stroke-dasharray:none" />
  </g>
</svg>
